# xmcd CD database file
#
# Track frame offsets:
#	150
#	14135
#	30209
#	46852
#	62656
#	81763
#	101817
#
# Disc length: 1767 seconds
#
# Revision: 0
# Processed by: cddbd v1.5.2PL0 Copyright (c) Steve Scherf et al.
# Submitted via: CDex 2.00
#
DISCID=4f06e507
DTITLE=Creek Don't Rise - Somtimes It Rains
DYEAR=2018
DGENRE=Blues
TTITLE0=You Don't Have To Stay Gone
TTITLE1=White Coat Man
TTITLE2=You Won't Let Me Love You
TTITLE3=Mobile Blues
TTITLE4=Sometimes It Rains
TTITLE5=Thank The Lord And Carry On
TTITLE6=Creek Don't Rise
EXTD=YEAR: 2018
EXTT0=
EXTT1=
EXTT2=
EXTT3=
EXTT4=
EXTT5=
EXTT6=
PLAYORDER=
